# xmcd
#
# Track frame offsets: 
#        150
#        12155
#        26755
#        39890
#        53402
#        64920
#        79535
#        91777
#        103315
#        118000
#        135157
#        147737
#
# Disc length: 2163 seconds
#
# Revision: 3
# Processed by: cddbd v1.5.1PL0 Copyright (c) Steve Scherf et al.
# Submitted via: ExactAudioCopy v0.95a5
#
DISCID=9408710c
DTITLE=The Louvin Brothers - Tragic Songs Of Life
DYEAR=1996
DGENRE=Country
TTITLE0=Kentucky
TTITLE1=I'll Be All Smiles Tonight
TTITLE2=Let Her Go, God Bless Her
TTITLE3=What Is Home Without Love
TTITLE4=A Tiny Broken Heart
TTITLE5=In The Pines
TTITLE6=Alabama
TTITLE7=Katie Dear
TTITLE8=My Brother's Will
TTITLE9=Knoxville Girl
TTITLE10=Take The News To Mother
TTITLE11=Mary Of The Wild Moor
EXTD=
EXTT0=
EXTT1=
EXTT2=
EXTT3=
EXTT4=
EXTT5=
EXTT6=
EXTT7=
EXTT8=
EXTT9=
EXTT10=
EXTT11=
PLAYORDER=
